<svg width="183" height="182" viewBox="0 0 183 182" fill="none" xmlns="http://www.w3.org/2000/svg">
<path fill-rule="evenodd" clip-rule="evenodd" d="M92.7793 179.945C96.1463 179.577 99.4869 177.349 102.671 173.308C106.162 168.879 109.349 162.409 112.044 154.323C117.43 138.164 120.779 115.775 120.779 91C120.779 66.2248 117.43 43.8365 112.044 27.6766C109.349 19.5915 106.162 13.1206 102.671 8.69162C99.4869 4.6511 96.1463 2.42312 92.7793 2.0547V179.945ZM90.7793 179.945V2.0547C87.4123 2.42312 84.0716 4.6511 80.8874 8.69162C77.3969 13.1206 74.2098 19.5915 71.5148 27.6766C66.1282 43.8365 62.7793 66.2248 62.7793 91C62.7793 115.775 66.1282 138.164 71.5148 154.323C74.2098 162.409 77.3969 168.879 80.8874 173.308C84.0716 177.349 87.4123 179.577 90.7793 179.945ZM91.7793 0C41.5214 0 0.779297 40.7421 0.779297 91C0.779297 141.258 41.5214 182 91.7793 182C142.037 182 182.779 141.258 182.779 91C182.779 40.7421 142.037 0 91.7793 0ZM50.1849 27.9151C59.1803 14.4221 70.973 5.35028 84.0455 2.7604C82.3894 3.97444 80.8097 5.55898 79.3165 7.45367C75.6287 12.1332 72.3513 18.8425 69.6174 27.0442C64.1462 43.4579 60.7793 66.0696 60.7793 91C60.7793 115.93 64.1462 138.542 69.6174 154.956C72.3513 163.157 75.6287 169.867 79.3165 174.546C80.8097 176.441 82.3894 178.026 84.0455 179.24C70.973 176.65 59.1803 167.578 50.1849 154.085C39.4509 137.984 32.7793 115.683 32.7793 91C32.7793 66.3171 39.4509 44.0161 50.1849 27.9151ZM133.374 154.085C124.378 167.578 112.586 176.65 99.5131 179.24C101.169 178.026 102.749 176.441 104.242 174.546C107.93 169.867 111.207 163.157 113.941 154.956C119.412 138.542 122.779 115.93 122.779 91C122.779 66.0696 119.412 43.4579 113.941 27.0442C111.207 18.8425 107.93 12.1332 104.242 7.45367C102.749 5.55898 101.169 3.97444 99.513 2.7604C112.586 5.35028 124.378 14.4221 133.374 27.9151C144.108 44.0161 150.779 66.3171 150.779 91C150.779 115.683 144.108 137.984 133.374 154.085ZM74.569 178.337C64.5476 173.958 55.6324 165.862 48.5208 155.194C37.5391 138.722 30.7793 116.023 30.7793 91C30.7793 65.9773 37.5391 43.2783 48.5208 26.8057C55.6324 16.1384 64.5476 8.04208 74.569 3.6627C33.6517 11.6795 2.7793 47.7344 2.7793 91C2.7793 134.266 33.6517 170.32 74.569 178.337ZM108.99 178.337C149.907 170.32 180.779 134.266 180.779 91C180.779 47.7344 149.907 11.6795 108.99 3.6627C119.011 8.04208 127.926 16.1384 135.038 26.8057C146.019 43.2783 152.779 65.9773 152.779 91C152.779 116.023 146.019 138.722 135.038 155.194C127.926 165.862 119.011 173.958 108.99 178.337Z" fill="#CEFF7E"/>
</svg>
