<svg width="181" height="180" viewBox="0 0 181 180" fill="none" xmlns="http://www.w3.org/2000/svg">
<path d="M146.835 147.167H147.835V146.167V112.872L178.765 92.4548L157.213 155.007L93.1591 178.041L113.54 147.167H146.835Z" stroke="#7EFFD1" stroke-width="2"/>
<path d="M147.835 33.8329L147.835 32.8329L146.835 32.8329L113.54 32.8329L93.1227 1.90346L155.675 23.4552L178.709 87.5089L147.835 67.1277L147.835 33.8329Z" stroke="#7EFFD1" stroke-width="2"/>
<path d="M34.5009 32.8329L33.5009 32.8329L33.5009 33.8329L33.5009 67.1277L2.57143 87.5452L24.1232 24.9926L88.1769 1.95851L67.7957 32.8329L34.5009 32.8329Z" stroke="#7EFFD1" stroke-width="2"/>
<path d="M33.5009 146.167L33.5009 147.167L34.5009 147.167L67.7957 147.167L88.2132 178.097L25.6606 156.545L2.62648 92.4911L33.5009 112.872L33.5009 146.167Z" stroke="#7EFFD1" stroke-width="2"/>
</svg>
