<svg width="181" height="180" viewBox="0 0 181 180" fill="none" xmlns="http://www.w3.org/2000/svg">
<path d="M68.561 33.8906L89.8342 1.665V87.3894L68.561 33.8906Z" stroke="#7EFFD1"/>
<path d="M146.443 111.773L178.669 90.4998L92.9446 90.4998L146.443 111.773Z" stroke="#7EFFD1"/>
<path d="M34.2246 68.227L1.99899 89.5002L87.7234 89.5002L34.2246 68.227Z" stroke="#7EFFD1"/>
<path d="M112.107 146.109L90.8338 178.335L90.8338 92.6106L112.107 146.109Z" stroke="#7EFFD1"/>
<path d="M112.107 33.8906L90.8338 1.665V87.3894L112.107 33.8906Z" stroke="#7EFFD1"/>
<path d="M146.443 68.227L178.669 89.5002L92.9446 89.5002L146.443 68.227Z" stroke="#7EFFD1"/>
<path d="M34.2246 111.773L1.99899 90.4998L87.7234 90.4998L34.2246 111.773Z" stroke="#7EFFD1"/>
<path d="M68.561 146.109L89.8342 178.335L89.8342 92.6106L68.561 146.109Z" stroke="#7EFFD1"/>
<path d="M34.666 67.3267V35.0401L88.2659 88.64L34.666 67.3267Z" stroke="#7EFFD1"/>
<path d="M67.6597 34.333L35.3731 34.333L88.973 87.9329L67.6597 34.333Z" stroke="#7EFFD1"/>
<path d="M146.002 67.3267V35.0401L92.4021 88.64L146.002 67.3267Z" stroke="#7EFFD1"/>
<path d="M113.008 145.667L145.295 145.667L91.6949 92.0671L113.008 145.667Z" stroke="#7EFFD1"/>
<path d="M67.6597 145.667L35.3731 145.667L88.973 92.0671L67.6597 145.667Z" stroke="#7EFFD1"/>
<path d="M113.008 34.333L145.295 34.333L91.6949 87.9329L113.008 34.333Z" stroke="#7EFFD1"/>
<path d="M146.002 112.673L146.002 144.96L92.4021 91.36L146.002 112.673Z" stroke="#7EFFD1"/>
<path d="M34.666 112.673L34.666 144.96L88.2659 91.36L34.666 112.673Z" stroke="#7EFFD1"/>
<path d="M146.501 147.167H147.501V146.167V112.872L178.431 92.4548L156.879 155.007L92.8251 178.041L113.206 147.167H146.501Z" stroke="#7EFFD1" stroke-width="2"/>
<path d="M147.501 33.8329L147.501 32.8329L146.501 32.8329L113.206 32.8329L92.7887 1.90346L155.341 23.4552L178.375 87.5089L147.501 67.1277L147.501 33.8329Z" stroke="#7EFFD1" stroke-width="2"/>
<path d="M34.1669 32.8329L33.1669 32.8329L33.1669 33.8329L33.1669 67.1277L2.23744 87.5452L23.7892 24.9926L87.8429 1.95851L67.4617 32.8329L34.1669 32.8329Z" stroke="#7EFFD1" stroke-width="2"/>
<path d="M33.1669 146.167L33.1669 147.167L34.1669 147.167L67.4617 147.167L87.8792 178.097L25.3266 156.545L2.2925 92.4911L33.1669 112.872L33.1669 146.167Z" stroke="#7EFFD1" stroke-width="2"/>
</svg>
