<svg width="180" height="180" viewBox="0 0 180 180" fill="none" xmlns="http://www.w3.org/2000/svg">
<path d="M111.773 33.8906L90.4998 1.665L90.4998 87.3894L111.773 33.8906Z" stroke="#7EFFD1"/>
<path d="M146.109 68.227L178.335 89.5002L92.6106 89.5002L146.109 68.227Z" stroke="#7EFFD1"/>
<path d="M111.773 146.109L90.4998 178.335L90.4998 92.6106L111.773 146.109Z" stroke="#7EFFD1"/>
<path d="M146.109 111.773L178.335 90.4998L92.6106 90.4998L146.109 111.773Z" stroke="#7EFFD1"/>
<path d="M145.668 67.3267V35.0401L92.0681 88.64L145.668 67.3267Z" stroke="#7EFFD1"/>
<path d="M145.668 112.673L145.668 144.96L92.0681 91.36L145.668 112.673Z" stroke="#7EFFD1"/>
<path d="M112.674 34.333L144.961 34.333L91.361 87.9329L112.674 34.333Z" stroke="#7EFFD1"/>
<path d="M112.674 145.667L144.961 145.667L91.361 92.0671L112.674 145.667Z" stroke="#7EFFD1"/>
<path d="M147.167 33.8329L147.167 32.8329L146.167 32.8329L112.872 32.8329L92.4548 1.90346L155.007 23.4552L178.041 87.5089L147.167 67.1277L147.167 33.8329Z" stroke="#7EFFD1" stroke-width="2"/>
<path d="M33.8329 32.8329L32.8329 32.8329L32.8329 33.8329L32.8329 67.1277L1.90346 87.5452L23.4552 24.9926L87.5089 1.95851L67.1277 32.8329L33.8329 32.8329Z" stroke="#7EFFD1" stroke-width="2"/>
<path d="M32.8329 146.167L32.8329 147.167L33.8329 147.167L67.1278 147.167L87.5452 178.097L24.9926 156.545L1.95851 92.4911L32.8329 112.872L32.8329 146.167Z" stroke="#7EFFD1" stroke-width="2"/>
<path d="M146.167 147.167H147.167V146.167L147.167 112.872L178.097 92.4548L156.545 155.007L92.4911 178.041L112.872 147.167L146.167 147.167Z" stroke="#7EFFD1" stroke-width="2"/>
</svg>
