<svg width="24" height="24" viewBox="0 0 24 24" fill="none" xmlns="http://www.w3.org/2000/svg">
<path d="M20 3H4C3.447 3 3 3.448 3 4V20C3 20.552 3.447 21 4 21H20C20.553 21 21 20.552 21 20V4C21 3.448 20.553 3 20 3ZM8.339 18.337H5.667V9.747H8.339V18.337ZM7.003 8.574C6.147 8.574 5.455 7.88 5.455 7.026C5.455 6.172 6.146 5.478 7.003 5.478C7.857 5.478 8.551 6.171 8.551 7.026C8.551 7.881 7.857 8.574 7.003 8.574ZM18.338 18.337H15.669V14.16C15.669 13.164 15.651 11.883 14.281 11.883C12.891 11.883 12.68 12.969 12.68 14.09V18.338H10.013V9.748H12.573V10.922H12.61C12.965 10.247 13.837 9.535 15.134 9.535C17.838 9.535 18.337 11.313 18.337 13.627L18.338 18.337Z" fill="black"/>
</svg>
