<svg width="181" height="184" viewBox="0 0 181 184" fill="none" xmlns="http://www.w3.org/2000/svg">
<path fill-rule="evenodd" clip-rule="evenodd" d="M91.2798 1.1337L90.7798 0.845215L90.7794 0.845453L90.7789 0.845215L90.2789 1.1337L51.7795 23.345L51.2789 23.6337L50.7786 23.9223V23.9239L12.38 46.134L12.3795 46.1343L12.3793 46.1344L11.8802 46.4227V46.4231V46.9999V91.3637L11.7773 91.423L11.7786 92.0021L11.8787 137.002L11.88 137.578L12.3785 137.866L13.4921 138.509L50.7786 160.076V160.077L51.2789 160.366L51.7795 160.655L90.2749 182.864L90.2784 182.866L90.2789 182.866L90.7783 183.155L90.7786 183.154L90.7789 183.155L91.2784 182.866L91.2788 182.866L91.2824 182.864L129.779 160.654L129.779 160.655L130.278 160.366L130.279 160.366L130.293 160.357L130.779 160.077V160.077L169.179 137.866L169.179 137.866L169.198 137.855L169.679 137.577V137.577V137V92.5767V91.9999V91.423V46.9999V46.4231V46.4227L169.179 46.1343L169.179 46.134L169.172 46.1302L130.78 23.9239V23.9223L130.28 23.6337L129.779 23.345L91.2798 1.1337ZM53.8046 159.486L90.7786 180.845L127.753 159.486L90.7794 138.155L53.8046 159.486ZM91.7801 90.2676V47.5766L128.78 26.2305V68.9215L91.7801 90.2676ZM91.7801 136.423V93.7321L128.779 115.077V157.768L91.7801 136.423ZM90.7794 45.845L53.8053 24.5138L90.7794 3.15517L127.753 24.5138L90.7794 45.845ZM52.7786 26.2305L89.7786 47.5766V90.2685L52.7786 68.9223V26.2305ZM13.8802 47.5771V90.2099L50.7786 68.9223V26.2622L13.8802 47.5771ZM14.4967 136.78L13.8802 136.423V93.7335L50.7786 115.076V157.738L14.4967 136.78ZM52.7786 157.769V115.078L89.7786 93.7321V136.423L52.7786 157.769ZM167.679 136.423L130.779 157.738V115.077L167.679 93.7335V136.423ZM51.7786 70.6544L88.7775 91.9999L51.78 113.345L14.8286 91.9716L51.7786 70.6544ZM129.778 113.345L92.7805 92.0003L129.779 70.6552L166.681 91.9999L129.778 113.345ZM167.679 90.2662V47.5771L130.78 26.2622V68.9239L167.679 90.2662Z" fill="#CEFF7E"/>
</svg>
