<svg width="24" height="24" viewBox="0 0 24 24" fill="none" xmlns="http://www.w3.org/2000/svg">
<path d="M11.2788 3.45357C11.5092 2.98663 11.6245 2.75316 11.7809 2.67856C11.917 2.61366 12.0752 2.61366 12.2113 2.67856C12.3678 2.75316 12.483 2.98663 12.7135 3.45357L14.9002 7.88353C14.9682 8.02138 15.0022 8.09031 15.0519 8.14383C15.096 8.19121 15.1488 8.2296 15.2074 8.25687C15.2737 8.28767 15.3497 8.29879 15.5018 8.32102L20.3931 9.03596C20.9082 9.11124 21.1657 9.14888 21.2849 9.27469C21.3886 9.38414 21.4373 9.53455 21.4176 9.68402C21.3949 9.85583 21.2085 10.0374 20.8356 10.4006L17.2975 13.8466C17.1873 13.954 17.1321 14.0078 17.0965 14.0717C17.065 14.1282 17.0448 14.1904 17.037 14.2547C17.0282 14.3273 17.0412 14.4032 17.0672 14.5549L17.9021 19.4224C17.9901 19.9358 18.0341 20.1924 17.9514 20.3447C17.8794 20.4772 17.7515 20.5702 17.6032 20.5977C17.4327 20.6293 17.2022 20.5081 16.7412 20.2656L12.3685 17.966C12.2322 17.8944 12.1641 17.8586 12.0923 17.8445C12.0288 17.832 11.9634 17.832 11.8999 17.8445C11.8281 17.8586 11.76 17.8944 11.6238 17.966L7.25101 20.2656C6.79001 20.5081 6.5595 20.6293 6.38906 20.5977C6.24077 20.5702 6.11281 20.4772 6.04083 20.3447C5.95809 20.1924 6.00212 19.9358 6.09016 19.4224L6.92498 14.5549C6.951 14.4032 6.96402 14.3273 6.95521 14.2547C6.94741 14.1904 6.9272 14.1282 6.8957 14.0717C6.86011 14.0078 6.80497 13.954 6.69468 13.8466L3.15665 10.4006C2.78375 10.0374 2.5973 9.85583 2.57462 9.68402C2.55488 9.53455 2.60364 9.38414 2.70734 9.27469C2.82653 9.14888 3.08406 9.11124 3.59913 9.03596L8.4904 8.32102C8.64251 8.29879 8.71857 8.28767 8.78481 8.25687C8.84345 8.2296 8.89625 8.19121 8.94028 8.14383C8.99 8.09031 9.02402 8.02138 9.09206 7.88353L11.2788 3.45357Z" stroke="black" stroke-width="2" stroke-linecap="round" stroke-linejoin="round"/>
</svg>
