<svg width="22" height="21" viewBox="0 0 22 21" fill="none" xmlns="http://www.w3.org/2000/svg">
<path d="M10.2788 2.45357C10.5092 1.98663 10.6245 1.75316 10.7809 1.67856C10.917 1.61366 11.0752 1.61366 11.2113 1.67856C11.3678 1.75316 11.483 1.98663 11.7135 2.45357L13.9002 6.88353C13.9682 7.02138 14.0022 7.09031 14.0519 7.14383C14.096 7.19121 14.1488 7.2296 14.2074 7.25687C14.2737 7.28767 14.3497 7.29879 14.5018 7.32102L19.3931 8.03596C19.9082 8.11124 20.1657 8.14888 20.2849 8.27469C20.3886 8.38414 20.4373 8.53455 20.4176 8.68402C20.3949 8.85583 20.2085 9.0374 19.8356 9.4006L16.2975 12.8466C16.1873 12.954 16.1321 13.0078 16.0965 13.0717C16.065 13.1282 16.0448 13.1904 16.037 13.2547C16.0282 13.3273 16.0412 13.4032 16.0672 13.5549L16.9021 18.4224C16.9901 18.9358 17.0341 19.1924 16.9514 19.3447C16.8794 19.4772 16.7515 19.5702 16.6032 19.5977C16.4327 19.6293 16.2022 19.5081 15.7412 19.2656L11.3685 16.966C11.2322 16.8944 11.1641 16.8586 11.0923 16.8445C11.0288 16.832 10.9634 16.832 10.8999 16.8445C10.8281 16.8586 10.76 16.8944 10.6238 16.966L6.25101 19.2656C5.79001 19.5081 5.5595 19.6293 5.38906 19.5977C5.24077 19.5702 5.11281 19.4772 5.04083 19.3447C4.95809 19.1924 5.00212 18.9358 5.09016 18.4224L5.92498 13.5549C5.951 13.4032 5.96402 13.3273 5.95521 13.2547C5.94741 13.1904 5.9272 13.1282 5.8957 13.0717C5.86011 13.0078 5.80497 12.954 5.69468 12.8466L2.15665 9.4006C1.78375 9.0374 1.5973 8.85583 1.57462 8.68402C1.55488 8.53455 1.60364 8.38414 1.70734 8.27469C1.82653 8.14888 2.08406 8.11124 2.59913 8.03596L7.4904 7.32102C7.64251 7.29879 7.71857 7.28767 7.78481 7.25687C7.84345 7.2296 7.89625 7.19121 7.94028 7.14383C7.99 7.09031 8.02402 7.02138 8.09206 6.88353L10.2788 2.45357Z" fill="#fff" stroke="#fff" stroke-width="2" stroke-linecap="round" stroke-linejoin="round"/>
</svg>
