<svg width="41" height="41" viewBox="0 0 41 41" fill="none" xmlns="http://www.w3.org/2000/svg">
<path fill-rule="evenodd" clip-rule="evenodd" d="M20.8895 0.500556C20.8898 0.224414 20.6662 0.000307368 20.39 3.14564e-07C20.1139 -0.000306113 19.8898 0.223303 19.8895 0.499445L19.8718 16.386L16.0745 0.914146C16.0087 0.645963 15.7379 0.481916 15.4697 0.547737C15.2016 0.613558 15.0375 0.884322 15.1033 1.15251L18.9021 16.6303L11.521 2.55671C11.3927 2.31216 11.0905 2.21789 10.8459 2.34614C10.6014 2.4744 10.5071 2.77662 10.6354 3.02117L18.0025 17.068L7.47443 5.14681C7.29164 4.93983 6.97567 4.92022 6.76868 5.10301C6.5617 5.2858 6.54209 5.60178 6.72489 5.80876L17.287 17.7686L4.18429 8.73279C3.95697 8.57603 3.64559 8.63323 3.48883 8.86056C3.33206 9.08788 3.38926 9.39926 3.61659 9.55602L16.6633 18.5532L1.83344 12.8995C1.57541 12.8011 1.28649 12.9306 1.18812 13.1886C1.08975 13.4466 1.21918 13.7355 1.47721 13.8339L16.3948 19.521L0.559469 17.6257C0.285284 17.5929 0.0364096 17.7886 0.00359326 18.0628C-0.029223 18.337 0.166445 18.5858 0.440631 18.6186L16.1788 20.5023L0.440083 22.4036C0.165934 22.4367 -0.0294598 22.6858 0.00365913 22.96C0.036778 23.2341 0.285868 23.4295 0.560017 23.3964L16.3777 21.4855L1.47721 27.1661C1.21918 27.2645 1.08975 27.5534 1.18812 27.8114C1.28649 28.0695 1.57541 28.1989 1.83344 28.1005L16.6631 22.4469L3.61659 31.4439C3.38926 31.6007 3.33206 31.9121 3.48883 32.1394C3.64559 32.3667 3.95697 32.4239 4.18429 32.2672L17.2871 23.2313L6.72489 35.1912C6.54209 35.3982 6.5617 35.7142 6.76868 35.897C6.97567 36.0798 7.29164 36.0602 7.47443 35.8532L18.0025 23.9319L10.6354 37.9789C10.5071 38.2234 10.6014 38.5256 10.8459 38.6539C11.0905 38.7822 11.3927 38.6879 11.521 38.4433L18.9021 24.3698L15.1033 39.8475C15.0375 40.1157 15.2016 40.3864 15.4697 40.4522C15.7379 40.5181 16.0087 40.354 16.0745 40.0858L19.8718 24.614L19.8895 40.5006C19.8898 40.7767 20.1139 41.0003 20.39 41C20.6662 40.9997 20.8898 40.7756 20.8895 40.4994L20.8718 24.6164L24.7041 40.0869C24.7705 40.3549 25.0416 40.5184 25.3097 40.452C25.5777 40.3856 25.7412 40.1145 25.6748 39.8464L21.8406 24.3684L29.2582 38.4442C29.387 38.6885 29.6894 38.7822 29.9337 38.6534C30.1779 38.5247 30.2716 38.2223 30.1429 37.978L22.7421 23.934L33.3041 35.8538C33.4872 36.0605 33.8032 36.0796 34.0099 35.8964C34.2166 35.7133 34.2357 35.3973 34.0526 35.1906L23.4543 23.23L36.595 32.2675C36.8225 32.424 37.1338 32.3664 37.2903 32.1389C37.4468 31.9114 37.3892 31.6001 37.1616 31.4436L24.0813 22.4475L38.945 28.1007C39.2031 28.1988 39.4919 28.0692 39.5901 27.8111C39.6883 27.553 39.5586 27.2642 39.3005 27.166L24.3648 21.4855L40.2185 23.3964C40.4926 23.4295 40.7417 23.234 40.7747 22.9598C40.8078 22.6857 40.6123 22.4366 40.3381 22.4036L24.5644 20.5023L40.3376 18.6187C40.6118 18.5859 40.8075 18.3371 40.7748 18.0629C40.742 17.7887 40.4932 17.593 40.219 17.6257L24.3477 19.5211L39.3005 13.834C39.5586 13.7359 39.6883 13.4471 39.5901 13.189C39.4919 12.9309 39.2031 12.8012 38.945 12.8994L24.0811 18.5526L37.1616 9.55638C37.3892 9.3999 37.4468 9.0886 37.2903 8.86107C37.1338 8.63355 36.8225 8.57596 36.595 8.73244L23.4544 17.7699L34.0526 5.80938C34.2357 5.6027 34.2166 5.2867 34.0099 5.10356C33.8032 4.92042 33.4872 4.93951 33.3041 5.14619L22.7421 17.0659L30.1429 3.02204C30.2716 2.77775 30.1779 2.47534 29.9337 2.3466C29.6894 2.21786 29.387 2.31154 29.2582 2.55584L21.8406 16.6317L25.6748 1.15355C25.7412 0.885509 25.5777 0.614393 25.3097 0.547995C25.0416 0.481597 24.7705 0.64506 24.7041 0.913101L20.8718 16.3836L20.8895 0.500556Z" fill="#CEFF7E"/>
</svg>
