<svg width="184" height="180" viewBox="0 0 184 180" fill="none" xmlns="http://www.w3.org/2000/svg">
<path fill-rule="evenodd" clip-rule="evenodd" d="M91.7813 7.83936L92.7198 11.63L182.645 167.4L183.511 168.9H181.779H157.576H156.082H131.659H130.381H105.766H104.68H78.8804H77.7942H53.1812H51.9034H27.482H25.9878H1.77884H0.046875L0.912794 167.4L90.8464 11.6152L91.7813 7.83936ZM79.9666 166.9H103.594L91.7803 24.1268L79.9666 166.9ZM105.601 166.9H129.104L93.804 24.3303L105.601 166.9ZM89.7556 24.3422L77.9597 166.9H54.459L89.7556 24.3422ZM28.9761 166.9L87.578 24.8158L52.3986 166.9H28.9761ZM95.9824 24.8069L131.164 166.9H154.588L95.9824 24.8069ZM85.1129 25.5472L3.51081 166.9H26.8127L85.1129 25.5472ZM156.751 166.9L98.467 25.5857L180.047 166.9H156.751Z" fill="black"/>
</svg>
