<svg width="25" height="25" viewBox="0 0 25 25" fill="none" xmlns="http://www.w3.org/2000/svg">
<mask id="mask0_84_49" style="mask-type:alpha" maskUnits="userSpaceOnUse" x="0" y="0" width="25" height="25">
<rect x="0.861328" y="0.0263672" width="24" height="24" fill="#D9D9D9"/>
</mask>
<g mask="url(#mask0_84_49)">
<path d="M12.8613 22.0264C11.4947 22.0264 10.203 21.7639 8.98633 21.2389C7.76966 20.7139 6.70716 19.9972 5.79883 19.0889C4.89049 18.1805 4.17383 17.118 3.64883 15.9014C3.12383 14.6847 2.86133 13.393 2.86133 12.0264C2.86133 10.643 3.12383 9.3472 3.64883 8.13887C4.17383 6.93053 4.89049 5.8722 5.79883 4.96387C6.70716 4.05553 7.76966 3.33887 8.98633 2.81387C10.203 2.28887 11.4947 2.02637 12.8613 2.02637C14.2447 2.02637 15.5405 2.28887 16.7488 2.81387C17.9572 3.33887 19.0155 4.05553 19.9238 4.96387C20.8322 5.8722 21.5488 6.93053 22.0738 8.13887C22.5988 9.3472 22.8613 10.643 22.8613 12.0264C22.8613 13.393 22.5988 14.6847 22.0738 15.9014C21.5488 17.118 20.8322 18.1805 19.9238 19.0889C19.0155 19.9972 17.9572 20.7139 16.7488 21.2389C15.5405 21.7639 14.2447 22.0264 12.8613 22.0264ZM12.8613 19.9764C13.2947 19.3764 13.6697 18.7514 13.9863 18.1014C14.303 17.4514 14.5613 16.7597 14.7613 16.0264H10.9613C11.1613 16.7597 11.4197 17.4514 11.7363 18.1014C12.053 18.7514 12.428 19.3764 12.8613 19.9764ZM10.2613 19.5764C9.96133 19.0264 9.69883 18.4555 9.47383 17.8639C9.24883 17.2722 9.06133 16.6597 8.91133 16.0264H5.96133C6.44466 16.8597 7.04883 17.5847 7.77383 18.2014C8.49883 18.818 9.32799 19.2764 10.2613 19.5764ZM15.4613 19.5764C16.3947 19.2764 17.2238 18.818 17.9488 18.2014C18.6738 17.5847 19.278 16.8597 19.7613 16.0264H16.8113C16.6613 16.6597 16.4738 17.2722 16.2488 17.8639C16.0238 18.4555 15.7613 19.0264 15.4613 19.5764ZM5.11133 14.0264H8.51133C8.46133 13.693 8.42383 13.3639 8.39883 13.0389C8.37383 12.7139 8.36133 12.3764 8.36133 12.0264C8.36133 11.6764 8.37383 11.3389 8.39883 11.0139C8.42383 10.6889 8.46133 10.3597 8.51133 10.0264H5.11133C5.02799 10.3597 4.96549 10.6889 4.92383 11.0139C4.88216 11.3389 4.86133 11.6764 4.86133 12.0264C4.86133 12.3764 4.88216 12.7139 4.92383 13.0389C4.96549 13.3639 5.02799 13.693 5.11133 14.0264ZM10.5113 14.0264H15.2113C15.2613 13.693 15.2988 13.3639 15.3238 13.0389C15.3488 12.7139 15.3613 12.3764 15.3613 12.0264C15.3613 11.6764 15.3488 11.3389 15.3238 11.0139C15.2988 10.6889 15.2613 10.3597 15.2113 10.0264H10.5113C10.4613 10.3597 10.4238 10.6889 10.3988 11.0139C10.3738 11.3389 10.3613 11.6764 10.3613 12.0264C10.3613 12.3764 10.3738 12.7139 10.3988 13.0389C10.4238 13.3639 10.4613 13.693 10.5113 14.0264ZM17.2113 14.0264H20.6113C20.6947 13.693 20.7572 13.3639 20.7988 13.0389C20.8405 12.7139 20.8613 12.3764 20.8613 12.0264C20.8613 11.6764 20.8405 11.3389 20.7988 11.0139C20.7572 10.6889 20.6947 10.3597 20.6113 10.0264H17.2113C17.2613 10.3597 17.2988 10.6889 17.3238 11.0139C17.3488 11.3389 17.3613 11.6764 17.3613 12.0264C17.3613 12.3764 17.3488 12.7139 17.3238 13.0389C17.2988 13.3639 17.2613 13.693 17.2113 14.0264ZM16.8113 8.02637H19.7613C19.278 7.19303 18.6738 6.46803 17.9488 5.85137C17.2238 5.2347 16.3947 4.77637 15.4613 4.47637C15.7613 5.02637 16.0238 5.5972 16.2488 6.18887C16.4738 6.78053 16.6613 7.39303 16.8113 8.02637ZM10.9613 8.02637H14.7613C14.5613 7.29303 14.303 6.60137 13.9863 5.95137C13.6697 5.30137 13.2947 4.67637 12.8613 4.07637C12.428 4.67637 12.053 5.30137 11.7363 5.95137C11.4197 6.60137 11.1613 7.29303 10.9613 8.02637ZM5.96133 8.02637H8.91133C9.06133 7.39303 9.24883 6.78053 9.47383 6.18887C9.69883 5.5972 9.96133 5.02637 10.2613 4.47637C9.32799 4.77637 8.49883 5.2347 7.77383 5.85137C7.04883 6.46803 6.44466 7.19303 5.96133 8.02637Z" fill="#7EFFD1"/>
</g>
</svg>
